<?xml version="1.0" standalone="no"?>
<!DOCTYPE svg PUBLIC "-//W3C//DTD SVG 20010904//EN"
 "http://www.w3.org/TR/2001/REC-SVG-20010904/DTD/svg10.dtd">
<svg version="1.0" xmlns="http://www.w3.org/2000/svg"
 width="720.000000pt" height="1280.000000pt" viewBox="0 0 720.000000 1280.000000"
 preserveAspectRatio="xMidYMid meet">

<g transform="translate(0.000000,1280.000000) scale(0.100000,-0.100000)"
fill="#000000" stroke="none">
<path d="M5870 12760 c0 -27 -4 -40 -13 -40 -11 0 -14 -25 -14 -116 1 -77 -3
-118 -11 -123 -16 -10 -43 -77 -34 -86 4 -4 -6 -17 -22 -30 -35 -28 -66 -104
-66 -162 0 -30 -4 -43 -14 -43 -10 0 -16 -22 -21 -80 -5 -54 -11 -80 -20 -80
-15 0 -25 -86 -25 -221 0 -59 -4 -99 -10 -99 -5 0 -11 -19 -12 -42 l-1 -43 -7
45 c-6 39 -7 33 -8 -37 -1 -50 -6 -83 -12 -83 -7 0 -10 -34 -9 -93 1 -53 -3
-103 -10 -115 -18 -33 -13 -104 10 -146 14 -27 17 -41 9 -46 -8 -5 -7 -10 4
-19 12 -10 15 -9 19 6 3 15 6 13 15 -10 7 -16 12 -38 12 -50 0 -11 11 -37 25
-56 13 -20 30 -65 38 -101 24 -115 82 -182 224 -256 72 -38 193 -74 249 -74
25 0 57 -15 82 -37 7 -7 18 -13 23 -13 5 0 9 -7 9 -15 0 -8 4 -15 9 -15 4 0
11 -21 15 -46 7 -57 42 -129 70 -147 12 -8 48 -29 81 -47 33 -18 78 -47 100
-65 22 -18 79 -51 127 -74 93 -44 155 -53 178 -26 7 8 17 15 22 15 14 0 105
97 136 145 55 86 92 123 137 136 l45 13 0 1208 0 1208 -665 0 -665 0 0 -40z
m1050 -2236 c37 -15 40 -19 40 -55 0 -21 -3 -39 -7 -39 -5 0 -34 -24 -67 -54
-68 -62 -110 -79 -161 -63 -56 17 -68 37 -55 87 7 27 18 44 31 47 10 3 19 10
19 15 0 12 45 49 79 65 37 16 74 15 121 -3z"/>
<path d="M5022 10760 c-40 -9 -206 -94 -243 -123 -15 -12 -43 -32 -61 -45 -18
-13 -56 -40 -85 -60 -29 -20 -75 -53 -103 -72 -84 -57 -234 -168 -251 -184 -9
-9 -21 -16 -27 -16 -7 0 -12 -4 -12 -8 0 -4 -12 -15 -27 -24 -24 -14 -52 -36
-113 -90 -8 -8 -34 -26 -56 -41 -23 -16 -60 -47 -82 -70 -43 -44 -117 -107
-126 -107 -3 0 -30 -23 -59 -51 -28 -28 -62 -58 -74 -66 -13 -9 -23 -21 -23
-27 0 -7 -17 -22 -37 -34 -21 -12 -56 -38 -78 -57 -22 -19 -62 -54 -89 -78
-27 -23 -55 -49 -62 -57 -11 -13 -94 -103 -159 -174 -11 -12 -33 -40 -49 -62
-16 -21 -34 -43 -40 -49 -18 -16 -142 -207 -161 -247 -24 -53 -17 -80 29 -102
38 -19 41 -19 112 -1 108 27 174 12 267 -61 19 -15 27 -31 27 -53 0 -35 -17
-42 -90 -38 -85 5 -133 -31 -176 -131 -45 -108 -126 -209 -224 -282 -36 -27
-74 -58 -84 -69 -10 -11 -34 -23 -52 -27 -19 -3 -31 -11 -28 -16 4 -6 -1 -8
-14 -4 -16 5 -22 1 -30 -22 -5 -16 -6 -35 -2 -43 5 -8 11 -36 13 -64 3 -27 16
-81 27 -119 44 -141 10 -277 -99 -398 -37 -41 -71 -49 -107 -23 -17 11 -28 12
-58 3 l-36 -11 0 -79 c0 -43 4 -78 9 -78 5 0 12 -12 15 -27 4 -16 17 -64 30
-108 48 -161 63 -232 65 -307 2 -68 0 -76 -19 -81 -11 -3 -20 -12 -20 -21 0
-12 -10 -16 -39 -16 -33 0 -40 4 -44 23 -3 12 -3 -18 -1 -68 4 -89 4 -90 29
-87 25 3 35 -13 13 -21 -7 -2 0 -2 15 0 15 3 70 5 121 5 188 0 341 -77 469
-235 31 -39 59 -79 62 -88 3 -10 21 -20 43 -24 51 -9 116 -40 187 -91 65 -45
175 -155 175 -173 0 -25 21 -8 63 52 53 74 150 167 229 220 64 42 175 97 198
97 8 0 33 7 55 15 66 23 193 19 283 -10 124 -40 197 -101 246 -204 27 -58 31
-79 34 -173 2 -59 -1 -137 -8 -174 -32 -188 -223 -462 -432 -621 -70 -54 -76
-48 97 -83 143 -28 271 -56 340 -74 93 -25 101 -23 97 23 -3 28 4 55 26 98 16
33 35 77 42 99 29 91 133 319 160 349 9 11 30 43 46 70 33 59 79 124 131 184
21 24 45 54 53 66 30 43 203 206 249 233 23 13 28 3 9 -16 -9 -9 -9 -12 0 -12
7 0 12 5 12 10 0 19 146 12 192 -9 24 -11 62 -27 86 -37 34 -14 42 -22 42 -43
0 -16 8 -31 20 -39 12 -7 18 -17 15 -21 -10 -17 25 -81 45 -81 13 0 26 -14 39
-42 12 -24 32 -61 46 -83 37 -60 54 -102 49 -123 -3 -10 2 -24 10 -31 14 -11
16 -11 16 5 1 18 1 18 12 0 6 -11 12 -30 14 -42 3 -33 26 -97 41 -115 7 -8 13
-23 13 -32 0 -9 4 -17 10 -17 11 0 40 -64 40 -88 0 -9 15 -30 33 -47 52 -48
82 -96 66 -105 -13 -9 11 -45 79 -116 37 -39 39 -44 12 -44 -27 0 -25 -18 3
-29 31 -12 49 -35 41 -54 -3 -10 2 -21 15 -29 12 -7 21 -21 21 -30 0 -12 8
-18 23 -19 21 -1 21 -1 -3 -9 -42 -14 128 1 235 20 115 21 286 65 330 84 17 8
46 17 65 21 76 16 70 -28 70 531 l0 502 -52 17 c-76 24 -117 57 -266 208 -226
232 -281 283 -392 370 -165 129 -286 247 -326 319 -59 103 -76 148 -69 180 13
59 35 97 70 124 33 25 44 27 141 30 91 2 109 5 128 23 12 12 28 21 34 21 7 0
12 7 12 15 0 9 7 18 15 21 8 3 19 22 26 42 6 21 18 41 25 45 8 4 14 12 14 18
0 14 187 196 237 231 24 16 43 33 43 38 0 5 9 12 21 15 11 4 18 9 15 12 -3 3
11 17 32 30 43 30 100 40 139 25 16 -6 56 -13 91 -16 l62 -6 0 360 0 360 -25
0 c-14 0 -25 5 -25 10 0 6 -7 10 -15 10 -8 0 -15 -4 -15 -10 0 -5 -34 -42 -76
-82 -42 -40 -107 -112 -146 -160 -38 -49 -73 -88 -77 -88 -5 0 -25 -25 -45
-55 -20 -30 -41 -55 -46 -55 -6 0 -10 -5 -10 -11 0 -12 -58 -69 -70 -69 -5 0
-10 -4 -12 -8 -6 -16 -74 -61 -100 -67 l-28 -7 14 43 c37 115 68 170 137 247
24 27 55 64 69 82 36 49 130 154 141 158 5 2 9 10 9 18 0 8 4 14 9 14 5 0 12
8 15 18 3 9 16 28 28 42 13 14 43 52 68 85 70 94 117 141 160 160 l40 18 0
353 0 352 -31 7 c-51 11 -142 72 -179 119 -19 24 -59 58 -88 75 -45 26 -64 31
-115 31 -101 -1 -115 -24 -123 -194 -5 -130 -21 -258 -32 -266 -5 -3 -11 -13
-15 -22 -8 -23 -20 -23 -42 2 -14 15 -31 20 -70 20 -35 0 -57 5 -65 15 -7 8
-19 15 -26 15 -26 0 -94 32 -94 44 0 12 -61 46 -82 46 -16 0 -78 43 -78 53 0
5 -10 17 -22 27 -14 11 -23 29 -23 47 0 21 -5 28 -17 27 -11 -1 -18 5 -18 15
0 9 -14 29 -30 45 -17 16 -30 35 -30 43 0 7 -4 13 -8 13 -4 0 -8 8 -9 18 -2
39 -8 71 -11 67 -3 -2 -14 7 -25 21 -19 25 -22 25 -133 22 -112 -3 -114 -3
-138 23 -13 15 -36 49 -49 76 -14 27 -33 55 -41 62 -9 8 -16 19 -16 26 0 7 -8
23 -18 36 -11 13 -39 62 -64 109 -25 47 -55 101 -66 120 -12 19 -25 42 -29 50
-4 7 -23 41 -43 75 -20 33 -49 87 -64 119 -30 62 -103 149 -146 171 -35 18
-99 25 -138 15z m-242 -802 c64 -8 106 -21 170 -52 47 -22 89 -47 93 -53 4 -7
16 -13 25 -13 29 0 171 -132 164 -152 -1 -5 2 -8 8 -8 6 0 10 -6 10 -13 0 -7
9 -20 20 -30 11 -9 34 -39 51 -67 17 -27 34 -50 38 -50 12 0 68 -122 92 -200
15 -48 17 -238 5 -520 -9 -200 -12 -226 -37 -254 -29 -33 -69 -32 -179 7 -47
16 -141 47 -210 69 -196 63 -326 63 -391 -1 -8 -9 -30 -27 -47 -41 -18 -14
-32 -30 -32 -36 0 -7 -12 -15 -26 -18 -15 -4 -66 -47 -115 -97 -49 -49 -94
-87 -99 -84 -5 3 -24 -2 -41 -11 -25 -12 -33 -13 -39 -3 -5 6 -15 9 -23 6 -19
-7 -116 43 -172 89 -28 23 -49 50 -58 78 -13 37 -14 52 -8 102 0 6 14 27 31
45 16 19 32 42 36 52 3 9 9 17 13 17 18 0 72 200 74 272 1 42 -30 104 -91 183
-51 65 -65 79 -192 180 -106 85 -140 122 -140 151 0 37 37 90 93 131 73 54
115 83 122 83 3 0 42 24 88 53 45 28 91 58 102 65 11 6 27 15 35 18 8 3 22 10
30 15 73 45 205 83 335 96 33 3 62 8 65 10 5 5 60 0 200 -19z"/>
<path d="M7153 10043 c-18 -9 -33 -22 -33 -29 0 -7 -4 -14 -10 -16 -5 -1 -11
-29 -12 -62 -3 -52 0 -60 22 -77 14 -10 37 -21 53 -25 l27 -6 0 116 c0 64 -3
116 -7 115 -5 0 -23 -8 -40 -16z"/>
<path d="M0 8136 l0 -924 33 8 c54 13 88 32 186 103 103 75 255 156 341 180
185 53 247 63 530 88 101 8 150 8 195 0 33 -6 114 -14 180 -18 160 -8 186 5
268 132 17 28 37 56 44 63 7 8 18 23 24 35 7 12 36 59 65 103 30 45 54 88 54
97 0 9 4 18 9 21 5 3 21 41 37 83 15 43 41 110 57 148 36 85 48 149 35 187 -9
25 -71 94 -125 138 -30 25 -119 60 -153 60 -18 0 -43 9 -57 20 -14 11 -32 20
-40 20 -17 0 -80 32 -130 66 -34 23 -45 25 -115 22 -69 -3 -78 -1 -78 14 0 14
-9 18 -41 18 -24 0 -38 -4 -34 -10 3 -5 1 -10 -4 -10 -6 0 -11 5 -11 10 0 6
-16 10 -35 10 -19 0 -35 5 -35 11 0 7 15 10 40 7 40 -3 40 -3 40 30 l0 34 -77
-7 c-43 -4 -80 -11 -83 -15 -3 -5 -21 -11 -40 -15 -28 -5 -39 -2 -54 13 -14
16 -31 20 -79 21 -34 0 -63 5 -65 10 -2 6 -21 11 -43 11 -21 0 -39 5 -39 10 0
6 -33 10 -80 10 -47 0 -80 -4 -80 -10 0 -5 5 -10 12 -10 6 0 9 -2 6 -5 -2 -3
-20 2 -38 11 -18 10 -49 18 -69 20 -19 1 -37 7 -39 13 -2 5 -10 7 -18 4 -8 -3
-14 0 -14 6 0 6 -13 11 -30 11 -16 0 -30 3 -30 8 0 4 -15 15 -33 26 -18 11
-27 21 -19 23 6 3 10 9 6 14 -7 12 -94 12 -94 -1 0 -5 -9 -10 -20 -10 -11 0
-20 5 -20 10 0 6 -18 10 -40 10 -22 0 -40 5 -40 10 0 6 -33 10 -80 10 l-80 0
0 -924z"/>
<path d="M6614 7328 c-9 -14 45 -58 78 -65 16 -3 28 -9 28 -14 0 -5 18 -9 40
-9 22 0 40 -4 40 -10 0 -5 7 -10 15 -10 8 0 22 -11 30 -24 17 -25 80 -56 115
-56 11 0 41 -13 68 -29 26 -17 68 -34 93 -40 25 -6 53 -13 62 -17 15 -5 17 2
17 59 l0 65 -32 6 c-18 3 -57 8 -85 12 -29 4 -53 10 -53 13 0 12 -113 44 -147
42 -18 -1 -46 5 -62 14 -17 8 -37 15 -46 15 -9 0 -26 11 -38 24 -24 25 -112
42 -123 24z"/>
<path d="M2320 6970 c0 -5 5 -10 11 -10 5 0 7 5 4 10 -3 6 -8 10 -11 10 -2 0
-4 -4 -4 -10z"/>
<path d="M1940 6920 c-8 -5 -18 -6 -23 -3 -6 4 -7 -9 -3 -30 8 -44 74 -117 87
-96 6 10 11 6 18 -14 6 -16 11 -35 11 -43 0 -8 4 -14 9 -14 5 0 12 -18 16 -40
4 -22 11 -40 16 -40 5 0 9 -6 9 -13 0 -7 15 -28 34 -47 19 -19 32 -38 29 -42
-8 -14 6 -8 92 39 48 26 81 49 73 51 -7 3 -18 9 -23 16 -16 17 -104 76 -115
76 -6 0 -10 4 -10 8 0 4 -21 14 -46 21 -25 8 -48 21 -51 30 -2 9 -16 40 -31
70 -21 43 -27 50 -32 35 -7 -18 -7 -18 -14 3 -9 30 -29 44 -46 33z"/>
<path d="M2440 6850 c0 -18 4 -29 10 -25 6 3 10 15 10 25 0 10 -4 22 -10 25
-6 4 -10 -7 -10 -25z"/>
<path d="M7162 6704 c-26 -18 -28 -45 -4 -66 39 -34 42 -32 42 26 0 60 -4 64
-38 40z"/>
<path d="M2590 6643 c-20 -8 -54 -43 -40 -43 14 0 13 -27 -2 -33 -7 -3 -3 -6
9 -6 32 -1 37 -18 8 -25 -16 -4 -43 1 -71 14 -26 11 -56 17 -69 14 -13 -3 -26
-1 -29 5 -9 14 -46 14 -46 1 0 -5 -8 -10 -17 -10 -20 -1 -94 -39 -78 -40 6 0
-8 -9 -30 -20 -24 -11 -32 -18 -20 -18 41 2 50 -4 68 -42 10 -22 25 -40 33
-40 8 0 14 -8 14 -19 0 -10 7 -24 15 -31 10 -8 15 -30 15 -62 0 -47 -1 -50
-22 -44 -13 3 -38 6 -55 6 -18 0 -33 5 -33 11 0 6 -12 21 -27 33 -26 20 -46
32 -105 63 -15 8 -30 18 -33 24 -8 13 -35 -3 -80 -47 l-37 -35 38 -21 c21 -11
59 -43 84 -70 129 -140 185 -192 223 -204 9 -4 17 -13 17 -20 0 -8 3 -14 8
-14 11 0 72 -56 72 -66 -1 -16 -49 -64 -65 -64 -12 0 -15 -14 -15 -75 0 -41 4
-83 9 -93 5 -9 14 -37 21 -62 6 -25 20 -68 31 -95 10 -28 19 -56 19 -63 0 -6
5 -12 10 -12 15 0 12 -77 -2 -83 -18 -7 -149 3 -173 13 -21 8 -141 30 -169 30
-9 0 -16 -6 -16 -14 0 -20 63 -180 72 -184 5 -2 8 -9 8 -15 0 -16 81 -97 97
-97 7 0 13 -4 13 -8 0 -4 35 -23 77 -42 43 -19 115 -54 161 -77 83 -43 83 -43
177 -39 59 3 106 10 126 20 18 9 39 16 49 16 9 0 21 5 27 11 8 8 13 8 17 0 4
-6 13 -11 21 -11 23 0 68 -51 68 -77 0 -31 13 -33 182 -37 77 -2 141 -5 143
-6 1 -1 8 -3 15 -4 15 -2 10 -46 -9 -67 -8 -8 -14 -23 -14 -32 0 -9 -4 -17 -9
-17 -4 0 -20 -18 -35 -40 -14 -22 -33 -40 -41 -40 -8 0 -15 -4 -15 -9 0 -5
-17 -26 -37 -47 -21 -21 -48 -52 -61 -68 -12 -17 -45 -54 -72 -82 -28 -29 -50
-56 -50 -61 0 -4 -20 -27 -44 -51 -31 -30 -43 -48 -39 -62 3 -12 0 -20 -6 -20
-7 0 -9 -5 -6 -10 4 -7 12 -7 25 0 10 5 28 10 40 10 12 0 28 7 36 15 13 12 75
36 109 41 10 1 32 10 155 64 36 16 86 31 113 34 l47 6 0 -36 c0 -20 -6 -48
-14 -62 -7 -15 -20 -40 -27 -56 -14 -28 -79 -106 -79 -94 0 4 -18 -11 -40 -33
-21 -21 -43 -39 -47 -39 -4 0 -18 -18 -31 -40 -12 -22 -27 -40 -31 -40 -11 0
-81 -69 -81 -80 0 -5 -21 -25 -48 -46 -26 -21 -65 -59 -87 -86 -22 -26 -72
-74 -112 -105 -40 -32 -72 -63 -73 -70 0 -7 -26 -39 -59 -71 -32 -33 -62 -69
-66 -81 -3 -11 -13 -21 -21 -21 -8 0 -14 -4 -14 -9 0 -13 -56 -71 -69 -71 -6
0 -11 -5 -11 -11 0 -14 -55 -69 -69 -69 -6 0 -11 -9 -11 -20 0 -10 -6 -23 -12
-27 -7 -4 -22 -25 -32 -45 -12 -24 -26 -38 -38 -38 -11 0 -16 -5 -13 -11 4 -6
-2 -13 -14 -16 -11 -3 -19 -9 -16 -12 2 -4 -14 -24 -35 -44 -22 -20 -40 -40
-40 -45 0 -5 -9 -17 -20 -27 -11 -10 -20 -24 -20 -31 0 -7 -18 -27 -40 -44
-22 -17 -40 -39 -40 -49 0 -9 -18 -35 -40 -56 -22 -21 -40 -42 -40 -47 0 -4
-12 -21 -27 -37 -46 -49 -53 -59 -53 -76 0 -8 -9 -15 -20 -15 -11 0 -20 -6
-20 -12 0 -7 -18 -32 -40 -56 -22 -24 -40 -47 -40 -52 0 -5 -18 -28 -40 -52
-22 -24 -40 -49 -40 -55 0 -7 -4 -13 -10 -13 -5 0 -10 -9 -10 -20 0 -11 -4
-20 -10 -20 -5 0 -10 -5 -10 -12 0 -6 -24 -33 -52 -61 -29 -27 -47 -46 -39
-42 9 5 8 0 -4 -18 -9 -14 -23 -28 -31 -31 -8 -3 -14 -12 -14 -21 0 -8 -4 -15
-10 -15 -5 0 -10 -5 -10 -11 0 -7 -12 -23 -27 -38 l-28 -26 25 -3 c13 -2 26 1
28 7 2 6 17 11 33 11 16 0 29 5 29 10 0 6 7 10 15 10 8 0 22 16 31 35 18 39
24 44 56 50 23 5 40 24 32 37 -3 5 0 7 6 6 7 -2 17 6 23 16 7 11 23 30 37 42
75 66 140 132 140 143 0 7 5 9 10 6 6 -3 10 -2 10 2 0 12 119 133 130 133 6 0
10 6 10 14 0 7 15 26 33 42 19 16 39 39 46 52 6 12 18 22 26 22 8 0 15 6 15
14 0 18 118 146 136 146 8 0 14 3 14 8 0 4 18 25 40 47 22 22 49 54 61 72 11
18 28 34 38 38 9 3 25 21 34 40 9 19 21 35 27 35 5 0 10 5 10 12 0 16 51 68
67 68 7 0 13 9 13 20 0 11 7 23 15 27 9 3 23 19 32 36 19 39 39 58 47 49 4 -3
4 1 0 11 -3 9 -2 17 3 17 6 0 37 28 70 63 33 34 100 103 149 152 48 50 87 93
86 98 -1 4 4 7 12 7 13 0 106 87 106 99 0 4 27 36 60 71 33 35 60 66 60 68 0
1 36 38 80 82 44 44 80 83 80 87 1 4 19 24 41 43 76 66 209 200 209 210 0 6
12 16 28 22 15 7 38 23 51 35 13 13 32 23 41 23 10 0 32 13 49 29 29 27 36 29
86 24 54 -6 55 -6 55 -39 0 -18 5 -34 12 -36 16 -6 -4 -173 -24 -196 -8 -9
-20 -36 -27 -59 -6 -23 -18 -49 -26 -57 -8 -8 -15 -28 -15 -44 0 -16 -7 -43
-15 -58 -8 -16 -15 -36 -15 -45 0 -9 -9 -24 -20 -34 -11 -10 -22 -27 -26 -39
-4 -11 -17 -34 -30 -49 -13 -16 -24 -34 -24 -41 0 -7 -13 -25 -30 -41 -16 -16
-30 -35 -30 -42 0 -7 -4 -13 -10 -13 -5 0 -10 -7 -10 -15 0 -9 -7 -18 -15 -21
-8 -4 -15 -15 -15 -25 0 -10 -3 -19 -7 -19 -5 0 -24 -23 -43 -50 -19 -27 -38
-50 -42 -50 -3 0 -17 -19 -31 -42 -14 -24 -46 -65 -71 -93 -25 -27 -46 -58
-46 -67 0 -10 -6 -18 -12 -18 -7 -1 -26 -18 -41 -38 -88 -117 -113 -148 -129
-160 -10 -7 -18 -18 -18 -23 0 -5 -18 -27 -40 -49 -22 -22 -40 -46 -40 -54 0
-9 -9 -20 -20 -26 -11 -6 -20 -17 -20 -26 0 -8 -8 -18 -17 -21 -19 -7 -62 -53
-63 -66 0 -5 -35 -43 -77 -85 -78 -78 -82 -83 -118 -140 -11 -17 -26 -32 -32
-32 -7 0 -13 -7 -13 -15 0 -9 -6 -18 -14 -21 -18 -7 -51 -107 -42 -130 7 -18
34 -14 91 11 17 7 39 16 50 19 11 3 34 18 50 34 52 48 270 284 326 352 29 36
84 99 122 140 38 41 76 89 84 105 50 96 158 241 239 324 51 51 116 128 145
170 29 42 55 78 58 81 4 3 24 28 44 57 21 28 41 53 46 55 5 2 22 28 38 58 34
65 63 111 79 125 21 19 74 93 74 103 0 5 6 12 14 15 8 3 16 18 18 33 2 21 14
34 53 55 57 32 96 60 144 106 18 18 36 33 40 33 3 0 16 10 28 23 86 89 107
107 126 107 9 0 20 6 24 14 4 7 24 21 44 30 20 9 46 26 58 37 11 11 21 18 21
15 0 -3 28 11 63 31 34 20 67 36 74 36 6 0 11 7 11 16 0 33 25 107 41 120 12
10 13 15 4 18 -7 3 -13 18 -13 34 0 18 4 28 10 24 14 -9 12 18 -2 34 -9 9 -9
12 -1 7 10 -6 1 17 -45 108 -12 24 -12 30 -1 37 12 7 11 9 -1 9 -8 0 -28 18
-44 39 -31 43 -56 52 -255 90 -56 11 -105 22 -110 25 -5 3 -53 15 -107 26 -55
11 -124 27 -154 35 -73 20 -77 20 -131 -17 l-48 -33 6 -61 c8 -84 -2 -128 -37
-163 -62 -61 -191 -64 -371 -6 -75 23 -79 24 -195 10 -109 -12 -148 -11 -244
8 -8 2 -30 11 -47 20 -18 10 -35 17 -39 17 -4 -1 -20 17 -71 85 -10 12 -11 85
-1 85 4 0 10 9 13 20 4 11 17 33 30 48 l23 28 -60 64 c-92 99 -152 185 -205
292 l-48 98 -43 0 c-24 0 -65 9 -92 21 -39 17 -53 30 -74 71 -19 36 -24 54
-16 62 13 13 13 46 0 46 -5 0 -10 5 -10 11 0 8 5 7 15 -1 13 -11 18 -10 28 3
7 9 41 31 77 49 56 29 65 38 68 63 4 46 32 146 52 185 24 48 97 114 154 140
25 11 72 23 103 26 32 3 60 7 62 10 8 7 -23 56 -67 105 -54 60 -132 111 -202
133 -30 9 -64 22 -75 28 -21 12 -169 20 -195 11z m-110 -763 c0 -5 -18 -10
-40 -10 -22 0 -40 5 -40 10 0 6 18 10 40 10 22 0 40 -4 40 -10z m90 -30 c0 -5
-20 -10 -45 -10 -25 0 -45 5 -45 10 0 6 20 10 45 10 25 0 45 -4 45 -10z m707
-986 c-3 -3 -12 -4 -19 -1 -8 3 -5 6 6 6 11 1 17 -2 13 -5z"/>
<path d="M1840 6570 c0 -5 -6 -10 -14 -10 -18 0 -27 -36 -20 -82 4 -23 20 -51
45 -78 22 -23 39 -46 39 -51 0 -5 4 -9 8 -9 12 0 94 62 114 85 16 19 15 21 -6
32 -12 6 -27 22 -33 36 -6 13 -33 38 -59 55 -48 33 -74 40 -74 22z"/>
<path d="M4165 6440 c-70 -12 -170 -55 -241 -102 -80 -54 -208 -183 -257 -260
l-34 -53 28 -55 c16 -30 32 -70 35 -90 4 -19 12 -38 17 -42 6 -3 13 -57 15
-119 4 -104 7 -115 28 -132 36 -28 150 -174 192 -245 30 -51 43 -64 72 -72 62
-16 132 -23 139 -14 3 5 31 29 61 53 117 95 236 227 316 351 35 54 83 159 84
181 0 8 4 19 10 25 5 5 14 48 18 94 22 219 -45 374 -191 444 -93 44 -187 55
-292 36z"/>
<path d="M3050 6313 c-88 -30 -157 -87 -198 -163 -22 -41 -47 -154 -38 -169 3
-4 31 -4 62 1 35 5 77 5 112 -2 101 -18 119 -15 140 28 42 83 56 189 39 275
-8 37 -8 37 -55 36 -26 0 -54 -3 -62 -6z"/>
<path d="M3218 6222 c3 -69 -1 -103 -18 -160 -12 -40 -26 -75 -31 -78 -21 -13
-7 -33 29 -40 20 -4 42 -10 47 -14 6 -4 21 -11 35 -15 32 -10 136 -60 175 -85
44 -27 52 -24 59 20 3 23 10 49 15 58 28 51 51 104 51 113 0 28 -101 135 -189
201 -39 29 -156 88 -175 88 -1 0 1 -40 2 -88z"/>
<path d="M1235 6134 c8 -149 11 -158 38 -149 12 3 38 10 57 15 52 12 102 32
96 38 -3 3 0 12 7 20 10 13 9 15 -6 9 -11 -4 -16 -3 -12 3 8 13 -100 120 -120
120 -9 0 -27 12 -41 27 l-25 27 6 -110z"/>
<path d="M1367 5959 c-54 -15 -102 -31 -107 -34 -16 -10 -12 -85 4 -85 8 0 22
-29 35 -72 12 -40 28 -84 34 -98 15 -31 76 -90 94 -90 7 0 13 -4 13 -8 0 -5
11 -14 24 -20 32 -14 39 -65 16 -118 -22 -51 -77 -108 -174 -178 -21 -16 -74
-64 -115 -107 -42 -44 -80 -79 -85 -79 -30 0 -338 -305 -483 -479 -15 -18 -36
-40 -46 -50 -10 -9 -30 -29 -45 -45 -15 -15 -42 -43 -60 -62 -17 -19 -32 -40
-32 -47 0 -6 -23 -37 -50 -67 -27 -30 -48 -61 -45 -67 2 -7 -2 -13 -10 -13 -8
0 -15 -7 -15 -15 0 -8 -6 -12 -13 -9 -7 2 -30 -8 -50 -23 -20 -15 -48 -36 -62
-46 -14 -10 -44 -42 -66 -70 -23 -28 -46 -52 -53 -53 -6 0 -26 -4 -43 -9 -31
-7 -33 -10 -33 -51 0 -24 4 -44 10 -44 23 0 72 28 111 63 10 9 23 17 28 17 13
0 131 133 131 148 0 6 6 12 14 12 8 0 23 14 33 30 9 17 22 30 28 30 6 0 20 8
31 18 10 9 39 28 64 41 63 34 118 73 170 120 25 23 67 60 95 84 27 23 113 103
190 177 77 74 161 151 186 170 25 19 64 59 85 88 21 30 61 75 88 101 105 98
153 153 180 203 16 29 31 55 35 58 3 3 29 30 56 60 98 107 211 170 307 170
l48 0 -17 43 c-9 23 -22 48 -29 54 -7 7 -21 27 -32 45 -12 18 -46 55 -76 82
-31 27 -56 55 -56 63 0 7 -7 13 -15 13 -8 0 -15 5 -15 10 0 14 -136 150 -150
150 -5 0 -10 5 -10 10 0 14 -13 12 -123 -21z"/>
<path d="M3590 5938 c-7 -18 -19 -47 -26 -65 -8 -17 -14 -48 -14 -70 0 -35 5
-42 67 -88 37 -27 71 -52 76 -54 10 -4 4 72 -11 139 -13 54 -62 170 -72 170
-4 0 -13 -15 -20 -32z"/>
<path d="M2821 5931 c-12 -8 -12 -21 -2 -83 6 -40 12 -79 13 -85 5 -38 107 15
195 101 46 44 52 60 27 70 -24 9 -217 7 -233 -3z"/>
<path d="M2700 5888 c-37 -26 -55 -66 -46 -104 7 -28 57 -54 104 -54 29 0 29
0 20 43 -6 23 -12 63 -15 90 -6 54 -15 57 -63 25z"/>
<path d="M3120 5903 c0 -21 -128 -137 -189 -170 -36 -20 -68 -38 -70 -39 -2
-2 6 -27 19 -56 35 -83 140 -236 216 -315 l69 -72 35 12 c19 7 40 15 46 19 5
4 41 12 80 18 38 5 99 15 135 21 71 12 167 8 344 -15 61 -7 112 -12 114 -10 9
8 -135 209 -178 248 -18 17 -20 16 -37 -24 -22 -49 -73 -85 -106 -75 -37 12
-78 56 -89 100 -6 22 -11 78 -10 125 l2 86 -67 39 c-114 67 -314 136 -314 108z"/>
<path d="M3530 5661 c0 -33 5 -63 10 -66 6 -3 10 -17 10 -30 0 -37 41 -79 71
-72 30 8 59 55 59 95 0 25 -11 39 -64 81 -35 28 -69 51 -75 51 -7 0 -11 -23
-11 -59z"/>
<path d="M3360 5263 c-36 -8 -84 -22 -108 -30 -51 -18 -49 -23 47 -91 82 -59
119 -82 206 -126 l71 -36 94 26 c52 14 106 32 120 39 14 7 43 21 65 30 22 10
63 30 91 46 l52 29 -22 45 c-17 35 -27 45 -51 49 -16 3 -61 10 -100 17 -109
19 -387 20 -465 2z"/>
<path d="M4020 5211 c0 -29 18 -35 48 -15 25 16 25 18 7 25 -36 14 -55 10 -55
-10z"/>
<path d="M3127 5151 c-63 -107 51 -191 262 -191 104 0 108 7 29 49 -68 35
-133 79 -199 133 -54 46 -69 47 -92 9z"/>
<path d="M3915 5061 c-38 -21 -92 -46 -120 -56 -27 -10 -54 -22 -60 -26 -5 -3
-25 -10 -42 -14 -40 -8 -43 -22 -5 -31 15 -3 43 -10 62 -15 19 -5 67 -9 106
-9 87 0 132 25 152 84 14 42 7 106 -12 105 -6 0 -42 -17 -81 -38z"/>
<path d="M7075 5014 c-161 -57 -364 -107 -490 -120 -50 -5 -68 -10 -47 -12 25
-3 49 -20 103 -75 56 -58 72 -69 80 -57 8 13 12 12 28 -7 21 -25 47 -30 54
-10 4 10 7 10 18 0 11 -11 10 -13 -4 -13 -9 0 -17 -6 -17 -13 0 -14 239 -47
343 -47 l57 0 0 195 c0 150 -3 195 -12 195 -7 -1 -58 -17 -113 -36z m-468
-130 c-3 -3 -12 -4 -19 -1 -8 3 -5 6 6 6 11 1 17 -2 13 -5z"/>
<path d="M6408 4943 c6 -2 18 -2 25 0 6 3 1 5 -13 5 -14 0 -19 -2 -12 -5z"/>
<path d="M6700 4710 c0 -5 5 -10 10 -10 6 0 10 5 10 10 0 6 -4 10 -10 10 -5 0
-10 -4 -10 -10z"/>
<path d="M5825 4167 c-11 -7 -26 -20 -33 -29 -7 -10 -22 -18 -32 -18 -19 0
-80 -66 -80 -87 0 -6 -7 -19 -16 -28 -23 -22 -22 -155 0 -167 9 -5 16 -19 16
-32 0 -12 12 -47 27 -77 35 -70 53 -119 53 -145 0 -11 4 -24 8 -30 5 -5 17
-49 27 -99 10 -49 27 -107 37 -128 11 -22 17 -41 14 -44 -3 -3 0 -15 7 -27 6
-11 16 -37 22 -56 6 -19 20 -39 30 -45 11 -5 34 -19 50 -31 40 -28 94 -54 112
-54 8 0 27 -6 41 -14 64 -34 165 -66 207 -66 1 0 11 -8 21 -18 32 -29 64 -80
64 -101 0 -12 9 -55 21 -97 16 -57 19 -91 15 -133 -10 -85 -26 -161 -35 -161
-4 0 -18 -22 -31 -50 -13 -28 -38 -59 -57 -72 -18 -13 -33 -31 -33 -40 0 -18
-20 -70 -31 -78 -3 -3 -8 -27 -11 -53 -11 -93 -85 -132 -153 -81 -49 37 -58
60 -44 117 13 57 37 107 57 120 15 10 52 81 52 101 0 8 -12 29 -27 46 -27 32
-27 32 -102 28 -68 -5 -133 -26 -151 -50 -3 -4 -28 -14 -55 -23 -28 -10 -54
-24 -58 -31 -4 -8 -12 -14 -17 -14 -5 0 -21 -11 -36 -25 -15 -14 -31 -25 -37
-25 -5 0 -32 -22 -61 -49 -61 -59 -141 -121 -155 -121 -6 0 -11 -4 -11 -10 0
-5 -7 -10 -15 -10 -8 0 -15 -3 -15 -8 0 -4 -17 -16 -37 -27 -20 -11 -49 -31
-63 -44 -14 -13 -48 -34 -76 -47 -28 -13 -59 -33 -69 -44 -10 -11 -24 -20 -32
-20 -7 0 -13 -4 -13 -9 0 -5 -11 -12 -25 -15 -14 -4 -25 -11 -25 -16 0 -6 -12
-10 -27 -10 -30 0 -163 -59 -163 -72 0 -4 -6 -8 -13 -8 -22 0 -80 -32 -103
-57 -12 -13 -26 -23 -33 -23 -6 0 -11 -4 -11 -10 0 -5 -15 -23 -32 -39 -104
-93 -127 -111 -144 -111 -11 0 -30 -16 -44 -34 -14 -19 -28 -32 -33 -29 -14 9
-37 -26 -37 -58 0 -39 37 -74 89 -83 20 -3 49 -13 65 -21 15 -8 39 -15 52 -15
13 0 32 -8 42 -17 10 -10 28 -25 40 -33 12 -8 22 -21 22 -29 0 -28 -24 -81
-37 -81 -7 0 -13 -6 -13 -13 0 -20 -42 -55 -47 -40 -3 8 -14 6 -36 -8 -23 -14
-50 -19 -100 -19 -42 0 -66 4 -62 10 3 5 -6 12 -20 16 -14 3 -25 11 -25 16 0
6 -13 8 -30 4 -22 -4 -29 -2 -24 6 4 6 3 8 -4 4 -5 -3 -13 0 -15 6 -3 7 -5 1
-4 -14 1 -20 7 -28 19 -28 10 0 20 -10 24 -25 3 -14 12 -25 20 -25 8 0 14 -10
14 -25 0 -20 5 -25 24 -25 24 0 41 -23 30 -41 -10 -17 6 -46 31 -57 14 -6 25
-20 25 -30 0 -30 -53 -78 -108 -96 -28 -10 -79 -31 -112 -47 -33 -16 -64 -29
-68 -29 -4 0 -21 -14 -39 -30 -18 -17 -37 -30 -42 -30 -6 0 -16 -9 -23 -20 -7
-11 -18 -20 -25 -20 -7 0 -13 -9 -13 -20 0 -11 -4 -20 -9 -20 -6 0 -27 -26
-48 -58 -21 -31 -41 -58 -45 -60 -5 -2 -8 -21 -8 -43 0 -50 32 -85 86 -95 22
-4 48 -13 59 -19 11 -7 43 -20 72 -30 41 -15 55 -26 71 -56 17 -31 19 -45 11
-73 -5 -20 -14 -38 -19 -41 -6 -4 -10 -13 -10 -21 0 -9 -7 -22 -15 -30 -8 -9
-15 -29 -15 -45 l0 -29 1495 0 1495 0 0 285 0 285 -80 0 c-79 0 -80 0 -80 -25
0 -30 -15 -32 -32 -5 -7 11 -19 20 -26 20 -14 0 -82 59 -82 72 0 4 16 8 35 8
34 0 35 1 35 40 0 22 -5 40 -11 40 -6 0 -22 14 -36 30 -31 38 -43 38 -43 0 0
-20 -5 -30 -15 -30 -11 0 -15 11 -15 40 0 38 2 40 30 40 28 0 30 2 30 40 0 22
-5 40 -11 40 -7 0 -10 29 -7 90 1 50 0 90 -4 90 -5 0 -8 -22 -8 -50 0 -39 -4
-50 -16 -50 -13 0 -15 13 -13 91 3 89 2 92 -24 115 -16 13 -27 33 -27 47 0 14
-7 30 -15 37 -9 7 -14 19 -11 26 3 8 -1 29 -9 49 -9 20 -18 87 -22 155 -3 66
-10 120 -15 120 -4 0 -9 -19 -9 -42 -1 -31 -5 -17 -14 47 -18 122 -18 155 -1
155 11 0 25 32 31 75 4 30 48 201 53 210 4 5 8 32 9 59 1 27 6 52 11 55 9 5
39 93 87 251 22 71 30 267 14 331 -7 30 -16 56 -19 59 -8 8 -29 43 -40 68 -5
12 -74 85 -152 162 -222 218 -257 250 -270 250 -16 1 -108 93 -108 108 0 10
-25 44 -70 91 -13 14 -34 45 -46 68 -13 23 -58 77 -102 120 -63 62 -82 88 -93
126 -7 26 -16 47 -20 47 -4 0 -10 35 -13 78 -12 134 -28 221 -46 242 -20 23
-73 26 -105 7z m255 -503 c0 -14 -3 -14 -15 -4 -8 7 -15 14 -15 16 0 2 7 4 15
4 8 0 15 -7 15 -16z"/>
<path d="M2080 2145 c0 -8 -7 -15 -14 -15 -8 0 -27 -11 -42 -25 -15 -14 -31
-25 -35 -25 -5 0 -15 -13 -24 -30 -9 -16 -22 -30 -30 -30 -8 0 -15 -4 -15 -10
0 -5 -5 -10 -10 -10 -6 0 -30 -18 -52 -40 -23 -22 -47 -40 -54 -40 -6 0 -27
-19 -47 -42 -19 -24 -50 -60 -68 -80 -19 -21 -50 -56 -69 -78 -19 -22 -41 -40
-47 -40 -7 0 -13 -4 -13 -9 0 -5 -9 -11 -20 -14 -11 -3 -20 -12 -20 -21 0 -9
-5 -16 -11 -16 -22 0 -69 -42 -69 -61 0 -10 -4 -19 -8 -19 -11 0 -41 -29 -72
-68 -15 -19 -34 -32 -48 -32 -12 0 -25 -7 -29 -16 -3 -9 -17 -27 -30 -40 -19
-19 -34 -24 -77 -24 l-54 0 -4 40 c-2 22 -2 58 0 80 3 31 8 40 23 40 15 0 19
7 19 40 0 29 -4 40 -15 40 -8 0 -15 5 -15 10 0 6 7 10 15 10 10 0 15 10 15 30
0 23 -4 30 -20 30 -11 0 -20 -5 -20 -11 0 -24 -59 -69 -89 -69 -29 0 -31 -2
-31 -40 0 -34 -3 -40 -22 -40 -12 0 -37 -17 -59 -41 -31 -34 -38 -37 -41 -22
-4 14 -9 11 -26 -18 -12 -19 -33 -42 -47 -49 -25 -13 -33 -30 -15 -30 6 0 10
-6 10 -13 0 -9 -25 -16 -80 -23 -79 -9 -80 -9 -80 13 0 13 -5 23 -11 23 -6 0
-9 16 -7 38 3 32 7 37 30 40 25 3 28 7 28 43 0 32 -3 39 -20 39 -13 0 -20 7
-20 20 0 17 -7 20 -40 20 -22 0 -40 -4 -40 -10 0 -5 -18 -10 -40 -10 l-40 0 0
-44 c0 -25 -4 -48 -10 -51 -6 -4 -10 23 -10 74 l0 81 -30 0 c-20 0 -30 5 -30
15 0 11 -11 15 -40 15 -29 0 -40 -4 -40 -15 0 -10 -10 -15 -32 -15 -18 0 -55
-11 -82 -25 -27 -14 -55 -25 -61 -25 -7 0 -18 -7 -25 -15 -8 -10 -31 -15 -66
-15 l-54 0 0 -760 0 -760 205 0 205 0 0 40 c0 31 4 40 18 40 22 1 55 46 49 69
-3 14 0 17 14 14 16 -5 19 1 19 36 0 40 10 49 53 42 4 0 7 17 7 39 0 32 4 40
18 40 9 0 23 9 30 20 7 11 19 20 27 20 7 0 20 8 27 18 7 10 21 21 31 25 9 3
17 13 17 22 0 8 4 15 10 15 5 0 21 17 34 38 30 47 61 82 72 82 5 0 15 9 22 20
7 11 19 20 27 20 8 0 20 9 27 20 7 11 19 20 26 20 7 0 15 7 19 16 8 21 46 59
67 67 9 4 16 11 16 16 0 13 48 61 60 61 6 0 10 9 10 21 0 11 4 18 9 15 12 -8
27 13 35 49 10 43 34 75 55 75 12 0 22 13 31 40 7 22 18 40 24 40 7 0 20 15
31 32 21 37 106 128 118 128 10 0 67 55 67 64 0 3 44 50 98 104 53 53 106 114
117 136 11 21 30 46 43 56 12 10 22 22 22 27 0 4 9 14 20 21 11 7 20 19 20 28
0 16 16 34 59 64 12 8 21 19 21 25 0 6 9 16 20 23 11 7 20 18 20 25 0 6 14 26
30 44 17 18 30 37 30 42 0 6 9 15 20 21 11 6 20 17 20 25 0 7 3 15 8 17 16 7
52 95 53 128 0 29 2 31 9 15 7 -17 9 -17 9 -2 1 9 6 17 11 17 6 0 10 18 10 40
0 33 -3 40 -20 40 -11 0 -20 -7 -20 -15z"/>
<path d="M1345 1946 c-6 -13 -5 -21 3 -24 7 -2 12 -12 12 -23 0 -10 5 -19 10
-19 6 0 10 9 10 20 0 11 -4 20 -9 20 -5 0 -11 10 -14 23 -3 21 -4 21 -12 3z"/>
<path d="M2240 1861 c0 -18 -6 -21 -40 -21 -22 0 -40 -4 -40 -9 0 -5 -17 -20
-37 -32 -21 -13 -53 -40 -71 -61 -19 -20 -42 -40 -53 -43 -10 -4 -19 -12 -19
-20 0 -7 -12 -24 -27 -37 -16 -13 -41 -43 -58 -68 -16 -25 -36 -49 -42 -53 -7
-4 -13 -15 -13 -23 0 -8 -7 -17 -15 -20 -8 -3 -17 -14 -20 -23 -3 -10 -19 -33
-35 -51 -16 -18 -39 -51 -50 -72 -11 -22 -34 -54 -50 -71 -17 -18 -30 -37 -30
-43 0 -6 -9 -23 -20 -37 -11 -14 -20 -32 -20 -41 0 -9 -6 -16 -13 -16 -7 0
-27 -20 -43 -45 -40 -60 -199 -221 -235 -237 -16 -7 -29 -19 -29 -25 0 -7 -4
-13 -9 -13 -5 0 -23 -14 -40 -31 -17 -17 -31 -35 -31 -40 0 -5 -7 -9 -15 -9
-8 0 -26 -11 -40 -25 -14 -14 -25 -32 -25 -40 0 -8 -8 -15 -17 -15 -21 -1 -63
-62 -63 -91 0 -18 -55 -79 -71 -79 -5 0 -9 -4 -9 -9 0 -13 -124 -136 -144
-144 -9 -4 -16 -11 -16 -16 0 -19 -51 -61 -75 -61 -13 0 -37 -14 -54 -31 -34
-33 -38 -45 -18 -52 6 -3 3 -6 -8 -7 -31 -1 -75 -67 -75 -112 l0 -38 150 0
150 0 1 28 c3 70 10 96 35 118 14 13 32 24 40 24 7 0 14 3 14 8 0 4 17 16 37
27 55 29 58 33 78 113 9 41 24 76 31 79 8 3 14 11 14 17 0 15 31 43 81 73 19
13 47 33 61 45 27 24 97 62 137 73 68 20 193 148 219 224 7 19 23 49 37 67 14
18 25 36 25 41 0 4 18 24 40 43 22 19 40 41 40 48 0 6 4 12 9 12 20 0 158 132
210 200 14 19 38 49 53 65 16 17 28 36 28 43 0 6 5 12 10 12 6 0 10 5 10 12 0
6 8 21 19 32 28 31 76 125 101 197 12 35 26 68 31 74 5 5 9 23 9 40 0 17 4 35
9 41 5 5 12 30 16 55 5 35 3 48 -9 58 -14 12 -16 10 -16 -8z"/>
<path d="M1280 1800 c0 -22 5 -40 10 -40 6 0 10 18 10 40 0 22 -4 40 -10 40
-5 0 -10 -18 -10 -40z"/>
<path d="M553 40 c0 -25 2 -35 4 -22 2 12 2 32 0 45 -2 12 -4 2 -4 -23z"/>
</g>
</svg>
